<?xml version="1.0" encoding="UTF-8" standalone="no"?>
<!-- Created with Inkscape (http://www.inkscape.org/) -->

<svg
   width="45.160275mm"
   height="45.160267mm"
   viewBox="0 0 45.160275 45.160267"
   version="1.1"
   id="svg1"
   xml:space="preserve"
   inkscape:version="1.3.1 (91b66b0783, 2023-11-16)"
   sodipodi:docname="egg_timer_designboard_drawing.svg"
   xmlns:inkscape="http://www.inkscape.org/namespaces/inkscape"
   xmlns:sodipodi="http://sodipodi.sourceforge.net/DTD/sodipodi-0.dtd"
   xmlns="http://www.w3.org/2000/svg"
   xmlns:svg="http://www.w3.org/2000/svg"><sodipodi:namedview
     id="namedview1"
     pagecolor="#505050"
     bordercolor="#eeeeee"
     borderopacity="1"
     inkscape:showpageshadow="0"
     inkscape:pageopacity="0"
     inkscape:pagecheckerboard="0"
     inkscape:deskcolor="#d1d1d1"
     inkscape:document-units="mm"
     showguides="true"
     inkscape:zoom="1.950968"
     inkscape:cx="126.34754"
     inkscape:cy="668.12987"
     inkscape:window-width="2160"
     inkscape:window-height="1351"
     inkscape:window-x="-9"
     inkscape:window-y="-9"
     inkscape:window-maximized="1"
     inkscape:current-layer="layer1" /><defs
     id="defs1" /><g
     inkscape:label="Layer 1"
     inkscape:groupmode="layer"
     id="layer1"
     transform="translate(-102.39541,-60.252101)"><rect
       style="font-variation-settings:'wght' 400;fill:#333333;fill-opacity:1;stroke:none;stroke-width:1;stroke-linecap:round;stroke-linejoin:round;stroke-dasharray:none;stroke-opacity:1;paint-order:normal"
       id="rect129"
       width="221.32602"
       height="170.87671"
       x="0"
       y="4.8821921"
       ry="1.6174179"
       inkscape:export-filename="egg_timer_design_sheet.png"
       inkscape:export-xdpi="300"
       inkscape:export-ydpi="300" /><rect
       style="fill:#1a1a1a;stroke-width:0.163501;stroke-linecap:round;stroke-linejoin:round"
       id="rect73"
       width="45.160271"
       height="45.160271"
       x="102.39542"
       y="60.252102"
       ry="1.6174179" /><path
       id="path74"
       style="fill:#f9f9f9;fill-opacity:1;stroke:none;stroke-width:1.62149;stroke-linecap:round;stroke-linejoin:round;stroke-dasharray:none;stroke-opacity:1;paint-order:normal"
       d="m 124.32915,77.328877 a 7.0938826,7.1281928 0 0 0 -7.35367,5.687862 7.0938826,7.1281928 0 0 0 5.51191,8.409456 7.0938826,7.1281928 0 0 0 8.38096,-5.519439 7.0938826,7.1281928 0 0 0 -5.47336,-8.434593 l -0.0638,-0.01346 a 7.0938826,7.1281928 0 0 0 -1.00216,-0.129882 z m -0.0444,0.78095 a 6.3159824,6.3465298 0 0 1 0.89239,0.115626 l 0.0561,0.01169 a 6.3159824,6.3465298 0 0 1 4.87423,7.509519 6.3159824,6.3465298 0 0 1 -7.4626,4.913616 6.3159824,6.3465298 0 0 1 -4.90775,-7.486896 6.3159824,6.3465298 0 0 1 6.54759,-5.063605 z" /><path
       style="fill:#f9f9f9;fill-opacity:1;stroke-width:0.781251"
       d="m 123.73949,81.559386 c -0.011,-0.01083 -0.12843,-0.0214 -0.26158,-0.02356 -0.19568,-0.0034 -0.34418,-0.02982 -0.77563,-0.138827 -0.69985,-0.176787 -0.95922,-0.291501 -1.46013,-0.645795 -0.5875,-0.41553 -0.89255,-0.778834 -1.24596,-1.483867 -0.0841,-0.167573 -0.17917,-0.392442 -0.21144,-0.499702 -0.0324,-0.10726 -0.0974,-0.283549 -0.14444,-0.391756 -0.0891,-0.2042 -0.20086,-0.656229 -0.24668,-0.996769 -0.0533,-0.396624 -0.0416,-1.511057 0.0181,-1.718122 0.0207,-0.07213 0.048,-0.225625 0.0602,-0.341093 0.0153,-0.141447 0.0436,-0.248417 0.0876,-0.327886 0.0357,-0.06488 0.0913,-0.218281 0.12366,-0.34091 0.0322,-0.122627 0.10995,-0.355492 0.17281,-0.517478 0.0629,-0.161984 0.11427,-0.309819 0.11427,-0.328525 0,-0.01868 0.0501,-0.122242 0.1115,-0.230098 0.0613,-0.107856 0.14583,-0.281792 0.18789,-0.386518 0.0507,-0.126124 0.12242,-0.241274 0.21257,-0.341005 0.075,-0.08282 0.16322,-0.203693 0.19625,-0.268615 0.0842,-0.165156 0.18016,-0.285391 0.262,-0.327701 0.0446,-0.02308 0.10453,-0.105591 0.16652,-0.229335 0.0834,-0.166237 0.15644,-0.251778 0.5233,-0.611601 0.54535,-0.534887 0.7485,-0.70951 0.90371,-0.776786 0.0688,-0.02977 0.16035,-0.08595 0.20363,-0.124783 0.10365,-0.09304 0.35774,-0.243405 0.53773,-0.318235 0.0793,-0.03301 0.15647,-0.06908 0.17138,-0.08022 0.0153,-0.01108 0.0751,-0.0094 0.13382,0.0039 0.13767,0.0309 0.25927,-0.0039 0.33076,-0.09483 0.0547,-0.06959 0.0583,-0.07029 0.29334,-0.05521 0.29766,0.0191 0.46652,0.06404 0.79318,0.211122 0.47678,0.214655 0.84006,0.44981 1.21917,0.789202 0.0815,0.07293 0.21065,0.185711 0.28706,0.250632 0.19246,0.163511 0.5999,0.645592 0.79806,0.944309 0.3313,0.499348 0.70476,1.18218 0.86794,1.586969 0.37247,0.923898 0.48309,1.254964 0.54775,1.63943 0.0231,0.137057 0.0653,0.384937 0.0939,0.550847 0.0724,0.419609 0.10287,1.137031 0.0607,1.434031 -0.0181,0.127402 -0.0335,0.293431 -0.0345,0.368964 -0.004,0.280743 -0.19312,0.893401 -0.33259,1.074659 -0.13397,0.174203 -0.32523,0.489988 -0.34914,0.576601 -0.0341,0.12309 -0.36225,0.551497 -0.44462,0.580262 -0.0789,0.0275 -0.16249,0.105879 -0.3796,0.355376 -0.11872,0.13641 -0.19865,0.199193 -0.35408,0.278021 -0.1104,0.05599 -0.24147,0.132298 -0.29116,0.169542 -0.0497,0.03721 -0.10552,0.06772 -0.12412,0.06772 -0.0184,0 -0.0806,0.05091 -0.13797,0.113156 -0.0818,0.08876 -0.15683,0.133545 -0.34811,0.207803 -0.28471,0.110538 -0.67681,0.224061 -0.85391,0.247227 -0.0684,0.0089 -0.15975,0.03462 -0.20304,0.05701 -0.0433,0.02237 -0.14369,0.05017 -0.22298,0.06172 -0.20639,0.03001 -1.03384,0.05418 -1.05712,0.0309 z"
       id="path75"
       sodipodi:nodetypes="scssscssccscssscsssssssssssssssssscccssssssssssssss" /><path
       style="fill:#f9f9f9;fill-opacity:1;stroke-width:0.781251"
       d="m 116.03837,95.65636 c -0.011,-0.01083 -0.12843,-0.02139 -0.26157,-0.02356 -0.19569,-0.0034 -0.34418,-0.02983 -0.77563,-0.138829 -0.69985,-0.176786 -0.95923,-0.291501 -1.46014,-0.645795 -0.58749,-0.41553 -0.89254,-0.778833 -1.24595,-1.483867 -0.0841,-0.167573 -0.17917,-0.392441 -0.21144,-0.499701 -0.0324,-0.10726 -0.0974,-0.283549 -0.14445,-0.391755 -0.0891,-0.2042 -0.20085,-0.65623 -0.24668,-0.996769 -0.0533,-0.396626 -0.0416,-1.511058 0.0181,-1.718122 0.0207,-0.07213 0.0479,-0.225626 0.0602,-0.341095 0.0153,-0.141445 0.0436,-0.248417 0.0876,-0.327885 0.0357,-0.06488 0.0914,-0.218283 0.12366,-0.34091 0.0322,-0.122628 0.10995,-0.355493 0.17282,-0.517479 0.0629,-0.161983 0.11427,-0.309819 0.11427,-0.328524 0,-0.01867 0.0501,-0.122243 0.11149,-0.230098 0.0613,-0.107856 0.14583,-0.281791 0.18789,-0.386519 0.0507,-0.126122 0.12243,-0.241273 0.21257,-0.341005 0.075,-0.08282 0.16322,-0.203693 0.19625,-0.268615 0.0842,-0.165156 0.18017,-0.28539 0.26199,-0.327701 0.0446,-0.02308 0.10454,-0.105591 0.16655,-0.229334 0.0834,-0.166237 0.15643,-0.251778 0.52329,-0.611599 0.54534,-0.53489 0.74849,-0.709513 0.90371,-0.776789 0.0688,-0.02977 0.16034,-0.08595 0.20363,-0.124781 0.10365,-0.09305 0.35772,-0.243406 0.53774,-0.318237 0.0793,-0.033 0.15645,-0.06908 0.17137,-0.08022 0.0153,-0.01108 0.0751,-0.0094 0.13381,0.0039 0.13768,0.0309 0.25927,-0.0039 0.33077,-0.09483 0.0547,-0.06959 0.0583,-0.07029 0.29334,-0.05521 0.29766,0.01912 0.46651,0.06404 0.79318,0.211121 0.47678,0.214656 0.84005,0.449812 1.21918,0.789203 0.0815,0.07293 0.21063,0.18571 0.28704,0.250631 0.19246,0.163512 0.59991,0.645591 0.79808,0.944309 0.33128,0.499348 0.70473,1.182181 0.86793,1.586968 0.37246,0.923899 0.48309,1.254966 0.54774,1.639431 0.0231,0.137058 0.0653,0.384938 0.0939,0.550849 0.0724,0.419607 0.10288,1.13703 0.0607,1.43403 -0.0181,0.127402 -0.0335,0.293431 -0.0345,0.368965 -0.004,0.280741 -0.19312,0.8934 -0.33259,1.074658 -0.13396,0.174204 -0.32524,0.489987 -0.34915,0.576602 -0.0341,0.123089 -0.36224,0.551497 -0.44462,0.580261 -0.0787,0.0275 -0.16248,0.105868 -0.37959,0.355375 -0.11872,0.13641 -0.19865,0.199193 -0.35409,0.278022 -0.11039,0.05599 -0.24147,0.132299 -0.29115,0.169542 -0.0497,0.03722 -0.10553,0.06771 -0.12411,0.06771 -0.0184,0 -0.0806,0.05091 -0.138,0.113157 -0.0818,0.08876 -0.15682,0.133544 -0.34809,0.207804 -0.28471,0.110538 -0.67681,0.224061 -0.85392,0.247226 -0.0684,0.0089 -0.15976,0.03462 -0.20303,0.05701 -0.0433,0.02237 -0.14368,0.05017 -0.22298,0.06172 -0.20639,0.03001 -1.03384,0.05418 -1.05713,0.0309 z"
       id="path76"
       sodipodi:nodetypes="scssscssccscssscsssssssssssssssssscccssssssssssssss" /><path
       style="fill:#f9f9f9;fill-opacity:1;stroke-width:0.781251"
       d="m 131.44063,95.65636 c -0.011,-0.01083 -0.12844,-0.02139 -0.26159,-0.02356 -0.19567,-0.0034 -0.34417,-0.02983 -0.77563,-0.138829 -0.69985,-0.176786 -0.95922,-0.291501 -1.46013,-0.645795 -0.58749,-0.41553 -0.89255,-0.778833 -1.24597,-1.483867 -0.0841,-0.167573 -0.17916,-0.392441 -0.21143,-0.499701 -0.0324,-0.10726 -0.0974,-0.283549 -0.14445,-0.391755 -0.0891,-0.2042 -0.20085,-0.65623 -0.24668,-0.996769 -0.0533,-0.396626 -0.0416,-1.511058 0.0181,-1.718122 0.0207,-0.07213 0.048,-0.225626 0.0602,-0.341095 0.0153,-0.141445 0.0436,-0.248417 0.0876,-0.327885 0.0356,-0.06488 0.0913,-0.218283 0.12366,-0.34091 0.0322,-0.122628 0.10995,-0.355493 0.1728,-0.517479 0.0629,-0.161983 0.11427,-0.309819 0.11427,-0.328524 0,-0.01867 0.0502,-0.122243 0.1115,-0.230098 0.0613,-0.107856 0.14583,-0.281791 0.18789,-0.386519 0.0507,-0.126122 0.12242,-0.241273 0.21258,-0.341005 0.075,-0.08282 0.16322,-0.203693 0.19624,-0.268615 0.0841,-0.165156 0.18017,-0.28539 0.26201,-0.327701 0.0446,-0.02308 0.10452,-0.105591 0.16652,-0.229334 0.0834,-0.166237 0.15645,-0.251778 0.5233,-0.611599 0.54535,-0.53489 0.7485,-0.709513 0.90372,-0.776789 0.0688,-0.02977 0.16032,-0.08595 0.20362,-0.124781 0.10365,-0.09305 0.35774,-0.243406 0.53774,-0.318237 0.0793,-0.033 0.15646,-0.06908 0.17137,-0.08022 0.0153,-0.01108 0.0751,-0.0094 0.13382,0.0039 0.13767,0.0309 0.25927,-0.0039 0.33075,-0.09483 0.0547,-0.06959 0.0583,-0.07029 0.29335,-0.05521 0.29765,0.01912 0.46651,0.06404 0.79319,0.211121 0.47677,0.214656 0.84004,0.449812 1.21917,0.789203 0.0815,0.07293 0.21064,0.18571 0.28704,0.250631 0.19247,0.163512 0.5999,0.645591 0.79807,0.944309 0.3313,0.499348 0.70476,1.182181 0.86794,1.586968 0.37247,0.923899 0.48308,1.254966 0.54775,1.639431 0.0232,0.137058 0.0653,0.384938 0.0939,0.550849 0.0724,0.419607 0.10287,1.13703 0.0607,1.43403 -0.0181,0.127402 -0.0335,0.293431 -0.0345,0.368965 -0.004,0.280741 -0.19312,0.8934 -0.33258,1.074658 -0.13398,0.174204 -0.32524,0.489987 -0.34915,0.576602 -0.0341,0.123089 -0.36226,0.551497 -0.44462,0.580261 -0.0789,0.0275 -0.16249,0.105868 -0.3796,0.355375 -0.11872,0.13641 -0.19864,0.199193 -0.35409,0.278022 -0.11039,0.05599 -0.24146,0.132299 -0.29115,0.169542 -0.0497,0.03722 -0.10552,0.06771 -0.12411,0.06771 -0.0184,0 -0.0806,0.05091 -0.13798,0.113157 -0.0818,0.08876 -0.15683,0.133544 -0.34811,0.207804 -0.2847,0.110538 -0.6768,0.224061 -0.85392,0.247226 -0.0684,0.0089 -0.15974,0.03462 -0.20303,0.05701 -0.0433,0.02237 -0.14368,0.05017 -0.22298,0.06172 -0.20638,0.03001 -1.03383,0.05418 -1.05712,0.0309 z"
       id="path77"
       sodipodi:nodetypes="scssscssccscssscsssssssssssssssssscccssssssssssssss" /><rect
       style="fill:none;fill-opacity:1;stroke:#fcfcfc;stroke-width:0.366305;stroke-linecap:round;stroke-linejoin:round;stroke-dasharray:none;stroke-opacity:1;paint-order:normal"
       id="rect77"
       width="1.1719431"
       height="1.1719431"
       x="141.39706"
       y="62.487263"
       ry="0.12405521" /><g
       id="g79"
       transform="matrix(0.36630414,0,0,0.36630414,112.01654,36.403185)"><path
         style="fill:none;fill-opacity:1;stroke:#fcfcfc;stroke-width:1;stroke-linecap:round;stroke-linejoin:round;stroke-dasharray:none;stroke-opacity:1;paint-order:normal"
         d="M 88.146327,74.408156 91.3457,71.208785"
         id="path78" /><path
         style="fill:none;fill-opacity:1;stroke:#fcfcfc;stroke-width:1;stroke-linecap:round;stroke-linejoin:round;stroke-dasharray:none;stroke-opacity:1;paint-order:normal"
         d="M 88.146327,71.208785 91.3457,74.408156"
         id="path79" /></g><path
       style="fill:none;fill-opacity:1;stroke:#fcfcfc;stroke-width:0.366305;stroke-linecap:round;stroke-linejoin:round;stroke-dasharray:none;stroke-opacity:1;paint-order:normal"
       d="m 138.46397,63.659201 h 1.17195"
       id="path80" /><rect
       style="fill:none;fill-opacity:1;stroke:none;stroke-width:1;stroke-linecap:round;stroke-linejoin:round;stroke-dasharray:none;stroke-opacity:1;paint-order:normal"
       id="rect80"
       width="40.653168"
       height="38.989727"
       x="104.5254"
       y="64.214378"
       ry="1.6174179" /><g
       id="g81"
       transform="translate(-46.347881)"><text
         xml:space="preserve"
         style="font-style:normal;font-variant:normal;font-weight:normal;font-stretch:normal;font-size:2.58049px;line-height:1.05;font-family:'Chelsea Market';-inkscape-font-specification:'Chelsea Market, Normal';font-variant-ligatures:normal;font-variant-caps:normal;font-variant-numeric:normal;font-variant-east-asian:normal;letter-spacing:0px;word-spacing:-0.302515px;fill:#f9f9f9;fill-opacity:1;stroke-width:0.01344"
         x="153.35202"
         y="63.804031"
         id="text80"><tspan
           sodipodi:role="line"
           id="tspan80"
           style="font-style:normal;font-variant:normal;font-weight:normal;font-stretch:normal;font-size:2.58049px;font-family:'Chelsea Market';-inkscape-font-specification:'Chelsea Market, Normal';font-variant-ligatures:normal;font-variant-caps:normal;font-variant-numeric:normal;font-variant-east-asian:normal;letter-spacing:0px;word-spacing:-0.302515px;fill:#f9f9f9;fill-opacity:1;stroke-width:0.01344"
           x="153.35202"
           y="63.804031">egg timer</tspan></text><path
         style="fill:#f9f9f9;fill-opacity:1;stroke-width:0.137258"
         d="m 151.64305,64.212671 c -0.002,-0.0018 -0.0226,-0.0038 -0.046,-0.0041 -0.0344,-5.77e-4 -0.0604,-0.0052 -0.13627,-0.02439 -0.12296,-0.03106 -0.16853,-0.05121 -0.25653,-0.11346 -0.10322,-0.07301 -0.15681,-0.136833 -0.2189,-0.2607 -0.0148,-0.02944 -0.0314,-0.06895 -0.0372,-0.08779 -0.006,-0.01885 -0.0171,-0.04982 -0.0254,-0.06883 -0.0156,-0.03588 -0.0353,-0.115294 -0.0434,-0.175124 -0.009,-0.06969 -0.008,-0.265477 0.003,-0.301857 0.003,-0.01268 0.008,-0.03964 0.0106,-0.05993 0.003,-0.02485 0.008,-0.04364 0.0154,-0.05761 0.006,-0.0114 0.0161,-0.03835 0.0217,-0.05989 0.006,-0.02154 0.0193,-0.06246 0.0303,-0.09092 0.011,-0.02846 0.0201,-0.05443 0.0201,-0.05772 0,-0.0033 0.009,-0.02148 0.0196,-0.04042 0.0108,-0.01895 0.0256,-0.0495 0.033,-0.0679 0.009,-0.02216 0.0215,-0.04239 0.0373,-0.05991 0.0132,-0.01455 0.0287,-0.03579 0.0345,-0.04719 0.0148,-0.02902 0.0316,-0.05014 0.046,-0.05757 0.008,-0.004 0.0184,-0.01855 0.0292,-0.04029 0.0146,-0.0292 0.0275,-0.04423 0.0919,-0.107452 0.0958,-0.09398 0.13151,-0.124654 0.15878,-0.136473 0.0121,-0.0052 0.0282,-0.0151 0.0358,-0.02192 0.0182,-0.01635 0.0629,-0.04276 0.0945,-0.05591 0.0139,-0.0058 0.0275,-0.01214 0.0301,-0.0141 0.003,-0.0019 0.0132,-0.0017 0.0235,6.58e-4 0.0242,0.0055 0.0456,-6.99e-4 0.0581,-0.01666 0.01,-0.01222 0.0103,-0.01235 0.0515,-0.0097 0.0523,0.0034 0.082,0.01126 0.13934,0.0371 0.0837,0.03771 0.14759,0.07903 0.2142,0.138655 0.0143,0.01281 0.037,0.03262 0.0504,0.04403 0.0338,0.02872 0.10539,0.113425 0.14021,0.165906 0.0582,0.08773 0.12381,0.207698 0.15248,0.278815 0.0655,0.162319 0.0849,0.220484 0.0962,0.288031 0.004,0.02407 0.0114,0.06763 0.0165,0.09678 0.0127,0.07372 0.0181,0.199766 0.0107,0.251945 -0.003,0.02239 -0.006,0.05156 -0.006,0.06482 -6.8e-4,0.04933 -0.034,0.156961 -0.0584,0.188807 -0.0235,0.03061 -0.0572,0.08608 -0.0614,0.101303 -0.006,0.02162 -0.0636,0.09689 -0.0781,0.101946 -0.0139,0.0048 -0.0286,0.0186 -0.0667,0.06244 -0.0208,0.02397 -0.0349,0.03499 -0.0622,0.04885 -0.0194,0.0098 -0.0425,0.02324 -0.0512,0.02978 -0.009,0.0066 -0.0186,0.01189 -0.0218,0.01189 -0.003,0 -0.0142,0.0089 -0.0243,0.01988 -0.0144,0.01559 -0.0276,0.02346 -0.0611,0.03651 -0.05,0.01942 -0.11891,0.03937 -0.15002,0.04343 -0.012,0.0016 -0.0281,0.0061 -0.0356,0.01002 -0.008,0.004 -0.0252,0.0088 -0.0392,0.01084 -0.0362,0.0053 -0.18163,0.0095 -0.18572,0.0055 z m 0.0794,-0.07508 c 0.008,-0.0048 0.0184,-0.07796 0.0187,-0.126126 1.4e-4,-0.02723 -0.002,-0.03279 -0.0112,-0.04263 -0.0147,-0.01473 -0.0279,-0.01431 -0.0435,0.0014 -0.0124,0.01234 -0.0128,0.01464 -0.0158,0.0795 l -0.003,0.06679 0.014,0.01268 c 0.0141,0.01284 0.0292,0.01592 0.0411,0.0084 z m -0.3144,-0.07481 c 0.003,-0.0025 0.008,-0.01218 0.0111,-0.02144 0.003,-0.0093 0.0156,-0.03704 0.0279,-0.06176 0.0123,-0.02471 0.0224,-0.04807 0.0224,-0.05192 0,-0.01163 -0.0175,-0.02544 -0.0323,-0.02544 -0.01,0 -0.0192,0.0052 -0.0323,0.0179 -0.0151,0.01467 -0.0184,0.02104 -0.0184,0.03533 0,0.01126 -0.006,0.02782 -0.0161,0.04678 -0.0212,0.03852 -0.0212,0.05284 0,0.06511 0.01,0.0055 0.0283,0.0034 0.0378,-0.0045 z m 0.64391,-0.01045 c 0.009,-0.01762 0.009,-0.01848 4.1e-4,-0.03226 -0.005,-0.0078 -0.0193,-0.03616 -0.0325,-0.06303 -0.0132,-0.02687 -0.0276,-0.05021 -0.0319,-0.05185 -0.0128,-0.0049 -0.0286,-0.0034 -0.034,0.0032 -0.0135,0.01621 -0.0109,0.03252 0.0129,0.08351 0.0313,0.06688 0.0428,0.08176 0.0618,0.07992 0.0118,-0.0012 0.0162,-0.0049 0.0234,-0.01951 z m -0.89189,-0.171232 c 0.005,-0.0066 0.0108,-0.0164 0.0125,-0.02189 0.002,-0.0055 0.009,-0.01643 0.0175,-0.0243 0.0499,-0.04961 0.0619,-0.08065 0.0375,-0.09669 -0.018,-0.01179 -0.0327,-0.0053 -0.0456,0.02007 -0.006,0.012 -0.0198,0.03114 -0.0305,0.04255 -0.0423,0.04519 -0.0515,0.07254 -0.0288,0.08493 0.0182,0.0099 0.0269,0.0088 0.0375,-0.0046 z m 1.13778,-0.0029 c 0.003,-0.0068 0.005,-0.01736 0.003,-0.02343 -0.003,-0.01 -0.0467,-0.06964 -0.08,-0.10808 -0.0152,-0.01749 -0.0326,-0.01965 -0.0466,-0.0058 -0.0158,0.01585 -0.0115,0.02994 0.0219,0.07216 0.0171,0.0216 0.0357,0.04581 0.0414,0.05383 0.0101,0.01432 0.0337,0.02666 0.0472,0.02468 0.004,-5.49e-4 0.01,-0.0066 0.0129,-0.0134 z m 0.0932,-0.161802 c 0,-0.0083 0.0212,-0.06188 0.0346,-0.0876 0.003,-0.0071 0.007,-0.01938 0.007,-0.0271 0,-0.0077 0.006,-0.03193 0.0135,-0.05377 0.015,-0.04416 0.0287,-0.118741 0.0316,-0.17029 0.003,-0.04034 -0.01,-0.160816 -0.0224,-0.221979 -0.005,-0.02408 -0.0113,-0.05519 -0.0141,-0.06913 -0.009,-0.04152 -0.0385,-0.124297 -0.0584,-0.161298 -0.0102,-0.01901 -0.0201,-0.04285 -0.0219,-0.05297 -0.0109,-0.05978 -0.10103,-0.223559 -0.15964,-0.290136 -0.0113,-0.0128 -0.0257,-0.03157 -0.0321,-0.04171 -0.007,-0.01014 -0.027,-0.03191 -0.0457,-0.04837 -0.0187,-0.01647 -0.0537,-0.04868 -0.0778,-0.07159 -0.0679,-0.06461 -0.12229,-0.103749 -0.16259,-0.117049 -0.01,-0.0031 -0.0292,-0.01284 -0.0436,-0.02156 -0.0316,-0.01902 -0.0467,-0.02329 -0.0974,-0.02753 l -0.0386,-0.0032 0.003,0.04788 c 0.006,0.09078 0.0102,0.886225 0.005,0.90526 -0.002,0.0071 8.4e-4,0.01215 0.0135,0.02074 0.0995,0.06943 0.19606,0.143785 0.27497,0.211735 0.0367,0.03156 0.0473,0.03974 0.12198,0.0935 0.0722,0.052 0.15346,0.116861 0.1888,0.150708 0.0485,0.04643 0.062,0.05564 0.0722,0.04925 0.005,-0.0029 0.008,-0.0091 0.008,-0.01377 z m -1.38286,-0.120529 c 0.0106,-0.0038 0.0367,-0.0098 0.058,-0.01356 0.0459,-0.008 0.0552,-0.01236 0.0644,-0.03024 0.0104,-0.02011 0.009,-0.03493 -0.005,-0.04591 -0.0146,-0.01152 -0.0297,-0.01008 -0.0777,0.0074 -0.0572,0.02087 -0.0672,0.02598 -0.0763,0.03878 -0.0118,0.01659 -0.0113,0.02535 0.003,0.039 0.0134,0.01336 0.0104,0.01298 0.0345,0.0045 z m 0.0332,-0.313892 c 0.0212,-0.004 0.0457,-0.0061 0.0544,-0.0048 0.009,0.0014 0.0186,3.02e-4 0.0219,-0.0024 0.01,-0.0079 0.008,-0.02891 -0.004,-0.03988 -0.009,-0.0087 -0.0143,-0.0096 -0.0403,-0.0075 -0.0164,0.0013 -0.0514,0.0029 -0.078,0.0034 l -0.0483,9.25e-4 -0.004,0.01299 c -0.003,0.0098 -0.003,0.01606 0.003,0.02533 0.0111,0.01973 0.0385,0.02311 0.0971,0.01197 z m 0.14635,-0.314821 c 0.015,-0.01408 0.0183,-0.02826 0.008,-0.03652 -0.003,-0.0027 -0.0156,-0.0071 -0.0275,-0.0098 -0.0118,-0.0027 -0.0335,-0.01024 -0.0482,-0.01685 -0.0563,-0.02541 -0.0529,-0.02455 -0.0723,-0.01785 -0.0199,0.0069 -0.0256,0.01323 -0.0257,0.02875 -8e-5,0.01195 0.0235,0.02869 0.0405,0.02871 0.006,9e-6 0.0172,0.0034 0.0253,0.0077 0.0171,0.0089 0.0721,0.02893 0.0799,0.02908 0.003,5.3e-5 0.0117,-0.0059 0.0196,-0.01327 z m 0.13901,-0.244978 c 0.007,-0.0065 0.009,-0.01411 0.008,-0.02418 -8.4e-4,-0.01222 -0.008,-0.01998 -0.0406,-0.0461 -0.0471,-0.03772 -0.0777,-0.05848 -0.0863,-0.05848 -0.0104,0 -0.0289,0.02181 -0.0289,0.0341 0,0.0076 0.007,0.01807 0.0211,0.03131 0.0272,0.0256 0.0977,0.07284 0.10868,0.07284 0.005,0 0.0128,-0.0043 0.018,-0.0095 z m 0.18883,-0.193573 c 0.01,-0.01874 0.007,-0.03432 -0.0145,-0.06236 -0.0111,-0.01497 -0.0261,-0.03656 -0.0334,-0.04797 -0.0278,-0.04394 -0.0439,-0.0511 -0.0691,-0.03091 -0.0128,0.01026 -0.0129,0.01092 -0.007,0.02648 0.0125,0.02936 0.0765,0.114046 0.0899,0.118934 0.0196,0.0071 0.028,0.0061 0.0334,-0.0042 z m 0.69577,-0.149442 c -0.0135,-0.01553 -0.0324,-0.0341 -0.0419,-0.04126 l -0.0173,-0.01301 0.01,-0.01497 c 0.005,-0.0082 0.0156,-0.01885 0.0227,-0.02358 0.0132,-0.0088 0.0166,-0.01553 0.008,-0.01553 -0.003,0 -0.01,-0.0051 -0.0161,-0.01131 -0.0213,-0.02129 -0.01,-0.06679 0.0189,-0.07634 0.0378,-0.01249 0.0381,-0.01238 0.1343,0.06801 0.0615,0.0514 0.0736,0.06785 0.0661,0.09037 -0.009,0.02701 -0.0243,0.03722 -0.0562,0.03741 -0.0251,1.37e-4 -0.0289,-0.0011 -0.0382,-0.01284 l -0.0103,-0.013 -0.0276,0.02714 -0.0276,0.02714 z m -0.40044,-0.26451 c -0.0125,-0.0066 -0.0276,-0.0084 -0.077,-0.009 -0.0343,-3.84e-4 -0.0671,0.0015 -0.0743,0.0042 -0.007,0.0027 -0.0305,0.0054 -0.052,0.006 l -0.0392,0.001 0.002,-0.03592 0.002,-0.03592 h -0.0583 c -0.0623,0 -0.0782,-0.0041 -0.0922,-0.02404 -0.01,-0.01418 -0.009,-0.0303 0.003,-0.052 0.009,-0.01574 0.0148,-0.01992 0.04,-0.02861 0.0279,-0.0096 0.0328,-0.0099 0.0851,-0.0052 0.10202,0.0091 0.16562,0.01115 0.22602,0.0073 0.0329,-0.0021 0.0693,-0.0024 0.0806,-7.27e-4 0.0114,0.0017 0.0383,0.0034 0.0599,0.004 0.0402,10e-4 0.0597,0.0072 0.0743,0.02394 0.0151,0.01712 0.0138,0.02582 -0.008,0.04977 -0.018,0.02045 -0.0218,0.02272 -0.0378,0.02199 -0.0266,-0.0012 -0.10454,-0.0011 -0.10537,1.92e-4 -4.2e-4,6.04e-4 6.8e-4,0.01562 0.003,0.03336 0.005,0.05095 1.3e-4,0.05666 -0.0316,0.0397 z"
         id="path81" /></g><text
       xml:space="preserve"
       style="font-style:normal;font-variant:normal;font-weight:normal;font-stretch:normal;font-size:6.02201px;line-height:1.05;font-family:'Chelsea Market';-inkscape-font-specification:'Chelsea Market, Normal';font-variant-ligatures:normal;font-variant-caps:normal;font-variant-numeric:normal;font-variant-east-asian:normal;letter-spacing:0px;word-spacing:-0.705971px;fill:#1a1a1a;fill-opacity:1;stroke-width:0.0313648"
       x="114.75232"
       y="92.699158"
       id="text81"><tspan
         sodipodi:role="line"
         id="tspan81"
         style="font-style:normal;font-variant:normal;font-weight:normal;font-stretch:normal;font-size:6.02201px;font-family:'Chelsea Market';-inkscape-font-specification:'Chelsea Market, Normal';font-variant-ligatures:normal;font-variant-caps:normal;font-variant-numeric:normal;font-variant-east-asian:normal;letter-spacing:0px;word-spacing:-0.705971px;fill:#1a1a1a;fill-opacity:1;stroke-width:0.0313648"
         x="114.75232"
         y="92.699158">3</tspan></text><text
       xml:space="preserve"
       style="font-style:normal;font-variant:normal;font-weight:normal;font-stretch:normal;font-size:6.02201px;line-height:1.05;font-family:'Chelsea Market';-inkscape-font-specification:'Chelsea Market, Normal';font-variant-ligatures:normal;font-variant-caps:normal;font-variant-numeric:normal;font-variant-east-asian:normal;letter-spacing:0px;word-spacing:-0.705971px;fill:#1a1a1a;fill-opacity:1;stroke-width:0.0313648"
       x="122.47757"
       y="78.455902"
       id="text82"><tspan
         sodipodi:role="line"
         id="tspan82"
         style="font-style:normal;font-variant:normal;font-weight:normal;font-stretch:normal;font-size:6.02201px;font-family:'Chelsea Market';-inkscape-font-specification:'Chelsea Market, Normal';font-variant-ligatures:normal;font-variant-caps:normal;font-variant-numeric:normal;font-variant-east-asian:normal;letter-spacing:0px;word-spacing:-0.705971px;fill:#1a1a1a;fill-opacity:1;stroke-width:0.0313648"
         x="122.47757"
         y="78.455902">6</tspan></text><text
       xml:space="preserve"
       style="font-style:normal;font-variant:normal;font-weight:normal;font-stretch:normal;font-size:6.02201px;line-height:1.05;font-family:'Chelsea Market';-inkscape-font-specification:'Chelsea Market, Normal';font-variant-ligatures:normal;font-variant-caps:normal;font-variant-numeric:normal;font-variant-east-asian:normal;letter-spacing:0px;word-spacing:-0.705971px;fill:#1a1a1a;fill-opacity:1;stroke-width:0.0313648"
       x="129.17677"
       y="92.557426"
       id="text83"><tspan
         sodipodi:role="line"
         id="tspan83"
         style="font-style:normal;font-variant:normal;font-weight:normal;font-stretch:normal;font-size:6.02201px;font-family:'Chelsea Market';-inkscape-font-specification:'Chelsea Market, Normal';font-variant-ligatures:normal;font-variant-caps:normal;font-variant-numeric:normal;font-variant-east-asian:normal;letter-spacing:0px;word-spacing:-0.705971px;fill:#1a1a1a;fill-opacity:1;stroke-width:0.0313648"
         x="129.17677"
         y="92.557426">10</tspan></text><text
       xml:space="preserve"
       style="font-style:normal;font-variant:normal;font-weight:normal;font-stretch:normal;font-size:2.98768px;line-height:1.05;font-family:'Chelsea Market';-inkscape-font-specification:'Chelsea Market, Normal';font-variant-ligatures:normal;font-variant-caps:normal;font-variant-numeric:normal;font-variant-east-asian:normal;letter-spacing:0px;word-spacing:-0.35025px;fill:#f9f9f9;fill-opacity:1;stroke-width:0.0155609"
       x="120.62276"
       y="85.533493"
       id="text84"><tspan
         sodipodi:role="line"
         id="tspan84"
         style="font-style:normal;font-variant:normal;font-weight:normal;font-stretch:normal;font-size:2.98768px;font-family:'Chelsea Market';-inkscape-font-specification:'Chelsea Market, Normal';font-variant-ligatures:normal;font-variant-caps:normal;font-variant-numeric:normal;font-variant-east-asian:normal;letter-spacing:0px;word-spacing:-0.35025px;fill:#f9f9f9;fill-opacity:1;stroke-width:0.0155609"
         x="120.62276"
         y="85.533493">mins</tspan></text><text
       xml:space="preserve"
       style="font-style:normal;font-variant:normal;font-weight:normal;font-stretch:normal;font-size:2.80007px;line-height:1.05;font-family:'Chelsea Market';-inkscape-font-specification:'Chelsea Market, Normal';font-variant-ligatures:normal;font-variant-caps:normal;font-variant-numeric:normal;font-variant-east-asian:normal;letter-spacing:0px;word-spacing:-0.328256px;fill:#f9f9f9;fill-opacity:1;stroke-width:0.0145837"
       x="107.75968"
       y="84.290497"
       id="text85"><tspan
         sodipodi:role="line"
         id="tspan85"
         style="font-style:normal;font-variant:normal;font-weight:normal;font-stretch:normal;font-size:2.80007px;font-family:'Chelsea Market';-inkscape-font-specification:'Chelsea Market, Normal';font-variant-ligatures:normal;font-variant-caps:normal;font-variant-numeric:normal;font-variant-east-asian:normal;letter-spacing:0px;word-spacing:-0.328256px;fill:#f9f9f9;fill-opacity:1;stroke-width:0.0145837"
         x="107.75968"
         y="84.290497">soft</tspan></text><text
       xml:space="preserve"
       style="font-style:normal;font-variant:normal;font-weight:normal;font-stretch:normal;font-size:2.80007px;line-height:1.05;font-family:'Chelsea Market';-inkscape-font-specification:'Chelsea Market, Normal';font-variant-ligatures:normal;font-variant-caps:normal;font-variant-numeric:normal;font-variant-east-asian:normal;letter-spacing:0px;word-spacing:-0.328256px;fill:#f9f9f9;fill-opacity:1;stroke-width:0.0145837"
       x="129.00148"
       y="71.903305"
       id="text86"><tspan
         sodipodi:role="line"
         id="tspan86"
         style="font-style:normal;font-variant:normal;font-weight:normal;font-stretch:normal;font-size:2.80007px;font-family:'Chelsea Market';-inkscape-font-specification:'Chelsea Market, Normal';font-variant-ligatures:normal;font-variant-caps:normal;font-variant-numeric:normal;font-variant-east-asian:normal;letter-spacing:0px;word-spacing:-0.328256px;fill:#f9f9f9;fill-opacity:1;stroke-width:0.0145837"
         x="129.00148"
         y="71.903305">medium</tspan></text><text
       xml:space="preserve"
       style="font-style:normal;font-variant:normal;font-weight:normal;font-stretch:normal;font-size:2.80007px;line-height:1.05;font-family:'Chelsea Market';-inkscape-font-specification:'Chelsea Market, Normal';font-variant-ligatures:normal;font-variant-caps:normal;font-variant-numeric:normal;font-variant-east-asian:normal;letter-spacing:0px;word-spacing:-0.328256px;fill:#f9f9f9;fill-opacity:1;stroke-width:0.0145837"
       x="131.5551"
       y="99.431236"
       id="text87"><tspan
         sodipodi:role="line"
         id="tspan87"
         style="font-style:normal;font-variant:normal;font-weight:normal;font-stretch:normal;font-size:2.80007px;font-family:'Chelsea Market';-inkscape-font-specification:'Chelsea Market, Normal';font-variant-ligatures:normal;font-variant-caps:normal;font-variant-numeric:normal;font-variant-east-asian:normal;letter-spacing:0px;word-spacing:-0.328256px;fill:#f9f9f9;fill-opacity:1;stroke-width:0.0145837"
         x="131.5551"
         y="99.431236">hard</tspan></text><text
       xml:space="preserve"
       style="font-style:normal;font-variant:normal;font-weight:normal;font-stretch:normal;font-size:1.76389px;line-height:1.05;font-family:Montserrat;-inkscape-font-specification:'Montserrat, @wght=400';font-variant-ligatures:normal;font-variant-caps:normal;font-variant-numeric:normal;font-variant-east-asian:normal;font-variation-settings:'wght' 400;text-align:end;letter-spacing:0px;word-spacing:0px;text-anchor:end;fill:#f9f9f9;fill-opacity:1;stroke-width:0.0120762"
       x="116.38996"
       y="79.274254"
       id="text89"><tspan
         sodipodi:role="line"
         id="tspan88"
         style="font-style:normal;font-variant:normal;font-weight:normal;font-stretch:normal;font-size:1.76389px;font-family:Montserrat;-inkscape-font-specification:'Montserrat, @wght=400';font-variant-ligatures:normal;font-variant-caps:normal;font-variant-numeric:normal;font-variant-east-asian:normal;font-variation-settings:'wght' 400;text-align:end;letter-spacing:0px;word-spacing:0px;text-anchor:end;fill:#f9f9f9;fill-opacity:1;stroke-width:0.0120762"
         x="116.38996"
         y="79.274254">runny yolk</tspan><tspan
         sodipodi:role="line"
         style="font-style:normal;font-variant:normal;font-weight:normal;font-stretch:normal;font-size:1.76389px;font-family:Montserrat;-inkscape-font-specification:'Montserrat, @wght=400';font-variant-ligatures:normal;font-variant-caps:normal;font-variant-numeric:normal;font-variant-east-asian:normal;font-variation-settings:'wght' 400;text-align:end;letter-spacing:0px;word-spacing:0px;text-anchor:end;fill:#f9f9f9;fill-opacity:1;stroke-width:0.0120762"
         x="116.38996"
         y="81.126335"
         id="tspan89">set of white</tspan></text><text
       xml:space="preserve"
       style="font-style:normal;font-variant:normal;font-weight:normal;font-stretch:normal;font-size:1.76389px;line-height:1.05;font-family:Montserrat;-inkscape-font-specification:'Montserrat, @wght=400';font-variant-ligatures:normal;font-variant-caps:normal;font-variant-numeric:normal;font-variant-east-asian:normal;font-variation-settings:'wght' 400;text-align:start;letter-spacing:0px;word-spacing:0px;text-anchor:start;fill:#f9f9f9;fill-opacity:1;stroke-width:0.0120762"
       x="130.12161"
       y="74.378014"
       id="text91"><tspan
         sodipodi:role="line"
         id="tspan90"
         style="font-style:normal;font-variant:normal;font-weight:normal;font-stretch:normal;font-size:1.76389px;font-family:Montserrat;-inkscape-font-specification:'Montserrat, @wght=400';font-variant-ligatures:normal;font-variant-caps:normal;font-variant-numeric:normal;font-variant-east-asian:normal;font-variation-settings:'wght' 400;text-align:start;letter-spacing:0px;word-spacing:0px;text-anchor:start;fill:#f9f9f9;fill-opacity:1;stroke-width:0.0120762"
         x="130.12161"
         y="74.378014">slightly set yolk</tspan><tspan
         sodipodi:role="line"
         style="font-style:normal;font-variant:normal;font-weight:normal;font-stretch:normal;font-size:1.76389px;font-family:Montserrat;-inkscape-font-specification:'Montserrat, @wght=400';font-variant-ligatures:normal;font-variant-caps:normal;font-variant-numeric:normal;font-variant-east-asian:normal;font-variation-settings:'wght' 400;text-align:start;letter-spacing:0px;word-spacing:0px;text-anchor:start;fill:#f9f9f9;fill-opacity:1;stroke-width:0.0120762"
         x="130.12161"
         y="76.230095"
         id="tspan91">frimmer white</tspan></text><text
       xml:space="preserve"
       style="font-style:normal;font-variant:normal;font-weight:normal;font-stretch:normal;font-size:1.76389px;line-height:1.05;font-family:Montserrat;-inkscape-font-specification:'Montserrat, @wght=400';font-variant-ligatures:normal;font-variant-caps:normal;font-variant-numeric:normal;font-variant-east-asian:normal;font-variation-settings:'wght' 400;text-align:end;letter-spacing:0px;word-spacing:0px;text-anchor:end;fill:#f9f9f9;fill-opacity:1;stroke-width:0.0120762"
       x="130.37367"
       y="98.158821"
       id="text93"><tspan
         sodipodi:role="line"
         id="tspan92"
         style="font-style:normal;font-variant:normal;font-weight:normal;font-stretch:normal;font-size:1.76389px;font-family:Montserrat;-inkscape-font-specification:'Montserrat, @wght=400';font-variant-ligatures:normal;font-variant-caps:normal;font-variant-numeric:normal;font-variant-east-asian:normal;font-variation-settings:'wght' 400;text-align:end;letter-spacing:0px;word-spacing:0px;text-anchor:end;fill:#f9f9f9;fill-opacity:1;stroke-width:0.0120762"
         x="130.37367"
         y="98.158821">hard yolk</tspan><tspan
         sodipodi:role="line"
         style="font-style:normal;font-variant:normal;font-weight:normal;font-stretch:normal;font-size:1.76389px;font-family:Montserrat;-inkscape-font-specification:'Montserrat, @wght=400';font-variant-ligatures:normal;font-variant-caps:normal;font-variant-numeric:normal;font-variant-east-asian:normal;font-variation-settings:'wght' 400;text-align:end;letter-spacing:0px;word-spacing:0px;text-anchor:end;fill:#f9f9f9;fill-opacity:1;stroke-width:0.0120762"
         x="130.37367"
         y="100.0109"
         id="tspan93">frim white</tspan></text></g></svg>
